<?xml version="1.0" encoding="UTF-8"?> <svg xmlns="http://www.w3.org/2000/svg" version="1.0" viewBox="35.84 155.75 288.43 81.56"><path fill="#ffee32" d="M45.954 191.393c1.61.39 3.016.578 4.672.578 8.188 0 13.64-4.485 13.64-11.14 0-2.938-.78-4.86-3.015-7.36-.578-.64-.765-.953-.765-1.407 0-.515.25-.828.64-.828.25 0 .453.063.64.188 1.407 1.219 1.657 1.344 2.5 1.344 1.782 0 3-1.344 3-3.329 0-2.171-1.921-3.906-4.28-3.906-2.438 0-4.672 2.188-4.672 4.61 0 .453 0 .64.062 1.03-3.203-1.609-5.187-2.109-8.062-2.109-7.688 0-13.25 4.86-13.25 11.579 0 4.218 1.718 7.296 5.437 9.593l-5.5 7.75c-.906 1.22-1.156 1.735-1.156 2.438 0 1.469.953 2.11 3 2.11.906 0 1.734-.063 2.562-.188 4.172-.578 7.5-.907 9.094-.907 4.344 0 7.36 1.735 7.36 4.297 0 2.625-3.204 4.47-7.75 4.47-3.063 0-4.797-.563-4.797-1.595 0-.187.062-.453.187-.64.453-.828.516-1.016.516-1.657 0-1.859-1.594-3.203-3.844-3.203-2.547 0-4.469 1.72-4.469 3.97 0 3.905 4.672 6.14 12.547 6.14 9.844 0 16.125-4.032 16.125-10.375 0-5.625-5-8.828-13.765-8.828-3 0-6.97.578-9.797 1.468zm4.672-19.329c2.563 0 3.969 3.141 3.969 8.907 0 5.312-1.344 8-3.906 8-2.625 0-3.969-2.89-3.969-8.516 0-5.64 1.281-8.39 3.906-8.39zm46.855 11.844c-.203-9.219-5.64-14.844-14.468-14.844-8.641 0-14.844 6.204-14.844 14.782 0 9.281 7.156 16.25 16.703 16.25 5.437 0 9.719-2.11 12.86-6.266l-2.376-2.047c-3.125 3.64-5.312 4.922-8.312 4.922-5.563 0-8.703-4.484-8.828-12.797zm-19.265-3.203c.187-5.562 1.984-8.64 5.047-8.64 3.078 0 4.796 3.078 4.796 8.64zm35.134-11.328-12.485.453v1.078c0 1.485.187 1.797 1.281 2.188l.64.187c1.079.328 1.47.89 1.47 2.375v17.844c0 1.406-.391 1.984-1.47 2.375l-.64.187c-1.094.329-1.281.704-1.281 2.11v1.094h16.64v-1.094c0-1.406-.328-1.922-1.28-2.11l-.891-.187c-1.094-.25-1.547-1.031-1.547-2.375v-18.11c1.093-1.28 3.14-2.171 4.875-2.171 2.625 0 4.03 1.531 4.03 4.422v15.859c0 1.484-.202 1.734-1.546 2.375l-.437.187c-1.157.454-1.282.641-1.282 2.11v1.094h16.188v-1.094c0-1.406-.188-1.781-1.281-2.11l-.641-.187c-1.078-.39-1.469-.969-1.469-2.375v-14.594c0-3.25-.64-5.375-2.11-6.969-1.859-2.046-4.484-3.015-8-3.015-3.593 0-5.952.906-8.765 3.406zm55.295 14.531c-.203-9.219-5.64-14.844-14.469-14.844-8.64 0-14.844 6.204-14.844 14.782 0 9.281 7.157 16.25 16.704 16.25 5.437 0 9.718-2.11 12.859-6.266l-2.375-2.047c-3.125 3.64-5.313 4.922-8.313 4.922-5.562 0-8.703-4.484-8.828-12.797zm-19.266-3.203c.188-5.562 1.985-8.64 5.047-8.64 3.078 0 4.797 3.078 4.797 8.64zm34.556-11.328-11.907.453v1.078c0 1.422.25 1.922 1.157 2.188l.765.187c1.016.25 1.47.953 1.47 2.375v17.844c0 1.406-.392 1.984-1.47 2.375l-.64.187c-1.094.329-1.282.704-1.282 2.11v1.094h16.313v-1.094c0-1.406-.25-1.985-1.016-2.11l-1.093-.187c-.766-.188-1.282-1.094-1.282-2.375v-5.875c0-5.125 2.625-11.531 4.672-11.531.516 0 1.031.265 1.406.703 1.032 1.281 1.922 1.734 3.079 1.734 2.312 0 4.093-2.11 4.093-4.672 0-2.812-2.047-4.859-4.797-4.859-1.796 0-3.578.89-5.187 2.547-1.281 1.281-1.922 2.312-3.64 5.703-.126.187-.329.64-.641 1.219zm46.964 25.406c-.438.578-1.016.844-1.531.844-.516 0-.954-.328-1.22-.906-.374-.703-.374-.828-.374-3.844v-7.86c0-5.124-.64-7.5-2.688-9.734-2.375-2.687-6.718-4.281-11.656-4.281-6.531 0-11.39 2.812-11.39 6.656 0 2.235 1.984 4.031 4.484 4.031 2.437 0 4.219-1.609 4.219-3.843l-.063-1.094c-.062-.375-.125-.703-.125-.89 0-1.094 1.156-1.86 2.75-1.86 1.86 0 3.328 1.094 4.094 3.078.453 1.14.578 2.297.64 4.984-8.25 1.86-8.437 1.86-10.171 2.563-5.313 2.047-7.813 4.922-7.813 8.953 0 5.063 4.094 8.516 10.11 8.516 4.359 0 6.593-1.078 9.609-4.672 1.281 3.015 3.328 4.484 6.14 4.484 2.875 0 6.141-1.734 6.141-3.265 0-.188-.125-.454-.375-.829zm-12.672-6.39c0 4.671-1.781 7.859-4.406 7.859-1.86 0-3.39-2.234-3.39-5.11 0-4.359 2.874-7.359 7.796-8.124zm28.863-32.266-12.921.453v1.031c0 1.532.187 1.844 1.28 2.172l.642.188c1.078.39 1.468.968 1.468 2.375v31.156c0 1.406-.39 1.984-1.468 2.375l-.641.187c-1.094.329-1.281.641-1.281 2.11v1.094h16.312v-1.094c0-1.406-.25-1.844-1.14-2.11l-.641-.187c-1.219-.39-1.61-.969-1.61-2.375zm20.287 13.313-12.922.39v1.078c0 1.485.188 1.797 1.282 2.188l.64.187c1.078.328 1.469.89 1.469 2.375v17.844c0 1.406-.39 1.984-1.469 2.375l-.64.187c-1.094.329-1.282.704-1.282 2.11v1.094h16.313v-1.094c0-1.406-.25-1.844-1.203-2.11l-.64-.187c-1.157-.39-1.548-.969-1.548-2.375zm-5.625-13.688c-3.015 0-5.562 2.484-5.562 5.5 0 3.14 2.422 5.625 5.562 5.625a5.555 5.555 0 0 0 5.563-5.563 5.555 5.555 0 0 0-5.563-5.562zm29.756 18.109a5.545 5.545 0 0 0-.25 1.47c0 1.858 1.781 3.327 4.031 3.327 2.297 0 4.156-1.734 4.156-3.906 0-3.266-4.218-5.688-9.984-5.688-7.875 0-13.5 4.032-13.5 9.657 0 4.734 2.5 6.984 10.562 9.672 3.266 1.078 3.766 1.28 4.61 1.921.953.704 1.406 1.594 1.406 2.61 0 2.312-2.312 3.906-5.766 3.906-2.046 0-3.578-.64-3.578-1.531 0-.125 0-.25.063-.453.187-.64.25-1.203.25-1.719 0-2.172-1.985-3.906-4.547-3.906-2.484 0-4.281 1.734-4.281 4.093 0 4.032 4.922 6.907 11.78 6.907 8.438 0 14.579-4.594 14.579-10.938 0-2.687-1.078-4.984-3-6.406-1.406-1.016-3.14-1.844-6.594-2.938-3.578-1.218-3.843-1.28-4.484-1.593-1.656-.782-2.484-1.735-2.484-3.016 0-1.797 1.984-3.266 4.343-3.266 1.532 0 2.75.579 2.75 1.282zm25.53-4.031v-8.64l-7.094.374c-1.985.079-2.438.579-2.438 2.688v3.469c0 1.343-.375 2.11-1.468 2.625-1.922.89-2.172 1.14-2.172 2.047v1.28h3.64v17.657c0 3.516.578 5.188 2.375 6.719 1.72 1.406 3.64 2.047 6.39 2.047 3.392 0 5.704-.953 8-3.266l-1.593-2.11c-1.281.829-1.86 1.094-2.75 1.094-1.922 0-2.89-1.406-2.89-3.968v-18.172h5.765v-3.844zm-195.666 46.932 7.844 19.875h4.328l5.078-13.875 5.063 13.875h4.406l7.766-19.875H151.2l-5.297 13.953-5.25-13.953h-4.078l-5.172 13.953-5.218-13.953zm51.955-.656c-7.078 0-11.14 4.406-11.14 10.578 0 6.812 4.515 10.625 11.14 10.625 6.656 0 11.125-3.813 11.125-10.625 0-6.297-4.14-10.578-11.125-10.578zm-6.485 10.5c0-4.328 2.672-6.578 6.438-6.578 3.89 0 6.516 2.328 6.516 6.578 0 4.14-2.407 6.781-6.47 6.781-4.077 0-6.484-2.64-6.484-6.781zm37.968-10.5c-3.188 0-5.563 1.218-7.079 3.625h-.11v-2.969h-4.578v19.875h4.579v-10.656c0-3.485 2.046-5.219 5.968-5.219 1.063 0 1.438.031 2.735.375v-4.969c-.266-.062-.453-.062-1.516-.062zm9.94-6.376v26.907h4.594v-26.906zm31.831 0v9.11c-3.219-2.437-5.375-2.734-7.625-2.734-6.406 0-10.656 4.281-10.656 10.468 0 6.407 4.515 10.735 10.468 10.735 3.25 0 5.766-1.11 7.875-3.219v2.547h4.516v-26.906zm-13.625 16.985c0-4.219 3.187-6.687 7-6.687 2.36 0 4.328.734 6.625 2.734v7.703c-2.703 2.25-4.516 2.922-6.781 2.922-3.922 0-6.844-2.672-6.844-6.672zm0 0"></path></svg> 